<svg width="293" height="294" xmlns="http://www.w3.org/2000/svg" xmlns:xlink="http://www.w3.org/1999/xlink" xml:space="preserve" overflow="hidden"><defs><clipPath id="clip0"><rect x="3323" y="877" width="293" height="294"/></clipPath></defs><g clip-path="url(#clip0)" transform="translate(-3323 -877)"><path d="M3323 925.834C3323 898.864 3344.86 877 3371.83 877L3567.17 877C3594.14 877 3616 898.864 3616 925.834L3616 1122.17C3616 1149.14 3594.14 1171 3567.17 1171L3371.83 1171C3344.86 1171 3323 1149.14 3323 1122.17Z" fill="#FFFFFF" fill-rule="evenodd"/><path d="M3460.92 968.196C3456.13 959.383 3459.39 948.355 3468.2 943.565L3468.2 943.565C3477.01 938.775 3488.04 942.036 3492.83 950.85L3564.09 1081.95C3568.88 1090.76 3565.61 1101.79 3556.8 1106.58L3556.8 1106.58C3547.99 1111.37 3536.96 1108.11 3532.17 1099.3Z" fill="#3576FD" fill-rule="evenodd"/><path d="M0 18.1624C-4.01935e-15 8.1316 8.13161 0 18.1625 0L18.1625 0C28.1933-4.01935e-15 36.3249 8.1316 36.3249 18.1624L36.3249 108.12C36.3249 118.15 28.1933 126.282 18.1625 126.282L18.1625 126.282C8.13161 126.282 0 118.15 0 108.12Z" fill="#3576FD" fill-rule="evenodd" transform="matrix(-0.878611 -0.477538 -0.477538 0.878611 3472.74 1005.83)"/><path d="M3459 1067.5C3459 1057.84 3466.61 1050 3476 1050 3485.39 1050 3493 1057.84 3493 1067.5 3493 1077.16 3485.39 1085 3476 1085 3466.61 1085 3459 1077.16 3459 1067.5Z" fill="#002060" fill-rule="evenodd"/></g></svg>